<?xml version="1.0" encoding="UTF-8"?>
<!DOCTYPE svg PUBLIC "-//W3C//DTD SVG 1.1//EN" "http://www.w3.org/Graphics/SVG/1.1/DTD/svg11.dtd">
<svg xmlns="http://www.w3.org/2000/svg" version="1.1" width="2638px" height="2639px" style="shape-rendering:geometricPrecision; text-rendering:geometricPrecision; image-rendering:optimizeQuality; fill-rule:evenodd; clip-rule:evenodd" xmlns:xlink="http://www.w3.org/1999/xlink">
<g><path style="opacity:1" fill="#6eb223" d="M 1323.5,-0.5 C 1324.17,-0.5 1324.83,-0.5 1325.5,-0.5C 1325.5,-0.166667 1325.5,0.166667 1325.5,0.5C 1361.85,55.8395 1395.18,113.173 1425.5,172.5C 1422.57,172.852 1419.74,173.518 1417,174.5C 1411.58,172.361 1406.25,170.028 1401,167.5C 1400.6,167.728 1400.43,168.062 1400.5,168.5C 1375.69,124.896 1350.86,81.2292 1326,37.5C 1298.8,81.9075 1272.63,126.907 1247.5,172.5C 1247.03,171.307 1246.03,170.64 1244.5,170.5C 1240.86,171.415 1237.19,171.581 1233.5,171C 1231.42,169.295 1229.09,168.128 1226.5,167.5C 1258.08,111.342 1290.41,55.6753 1323.5,0.5C 1323.5,0.166667 1323.5,-0.166667 1323.5,-0.5 Z"/></g>
<g><path style="opacity:0.999" fill="#fcfcfc" d="M -0.5,0.5 C 440.833,0.5 882.167,0.5 1323.5,0.5C 1290.41,55.6753 1258.08,111.342 1226.5,167.5C 1222.53,172.315 1218.7,177.315 1215,182.5C 1197.42,216.693 1177.58,249.359 1155.5,280.5C 1133.53,318.816 1111.53,357.15 1089.5,395.5C 1105.07,393.291 1120.73,390.457 1136.5,387C 1245.97,368.323 1355.64,366.99 1465.5,383C 1497.97,388.628 1530.3,394.628 1562.5,401C 1540.36,362.554 1518.36,324.054 1496.5,285.5C 1485.89,266.9 1474.89,248.566 1463.5,230.5C 1462.39,231.59 1461.39,231.59 1460.5,230.5C 1448.81,211.103 1437.14,191.77 1425.5,172.5C 1395.18,113.173 1361.85,55.8395 1325.5,0.5C 1762.83,0.5 2200.17,0.5 2637.5,0.5C 2637.5,879.833 2637.5,1759.17 2637.5,2638.5C 1758.17,2638.5 878.833,2638.5 -0.5,2638.5C -0.5,1759.17 -0.5,879.833 -0.5,0.5 Z"/></g>
<g><path style="opacity:1" fill="#fdfdfc" d="M 1400.5,168.5 C 1405.6,180.709 1411.27,192.709 1417.5,204.5C 1416.91,205.799 1415.91,206.632 1414.5,207C 1410.56,208.48 1406.56,209.647 1402.5,210.5C 1398.81,210.404 1395.64,209.071 1393,206.5C 1382.75,191.081 1371.91,176.081 1360.5,161.5C 1347.84,176.998 1335.34,192.665 1323,208.5C 1317.42,201.68 1312.09,194.68 1307,187.5C 1302.59,182.42 1297.59,178.086 1292,174.5C 1281.13,185.7 1270.63,197.2 1260.5,209C 1250.17,209.667 1239.83,209.667 1229.5,209C 1235.91,197.007 1241.91,184.84 1247.5,172.5C 1272.63,126.907 1298.8,81.9075 1326,37.5C 1350.86,81.2292 1375.69,124.896 1400.5,168.5 Z"/></g>
<g><path style="opacity:1" fill="#6db224" d="M 1638.5,253.5 C 1633.27,253.978 1628.27,254.978 1623.5,256.5C 1610.69,214.618 1597.86,172.618 1585,130.5C 1556.3,162.203 1527.96,194.203 1500,226.5C 1496.83,221.333 1493.67,216.167 1490.5,211C 1523.31,174.357 1556.64,138.19 1590.5,102.5C 1608.2,152.296 1624.2,202.629 1638.5,253.5 Z"/></g>
<g><path style="opacity:1" fill="#6db224" d="M 1031.5,245.5 C 1025.83,245.5 1020.17,245.5 1014.5,245.5C 1024.43,213.548 1034.26,181.548 1044,149.5C 1049.49,133.853 1055.66,118.52 1062.5,103.5C 1095.24,137.902 1127.24,172.902 1158.5,208.5C 1156.28,213.949 1153.78,219.282 1151,224.5C 1123.33,193.5 1095.67,162.5 1068,131.5C 1055.72,169.517 1043.55,207.517 1031.5,245.5 Z"/></g>
<g><path style="opacity:1" fill="#69b020" d="M 1400.5,168.5 C 1400.43,168.062 1400.6,167.728 1401,167.5C 1406.25,170.028 1411.58,172.361 1417,174.5C 1419.74,173.518 1422.57,172.852 1425.5,172.5C 1437.14,191.77 1448.81,211.103 1460.5,230.5C 1461.39,231.59 1462.39,231.59 1463.5,230.5C 1474.89,248.566 1485.89,266.9 1496.5,285.5C 1436.45,286.161 1376.62,285.494 1317,283.5C 1313.32,286.723 1309.15,288.723 1304.5,289.5C 1268.84,286.792 1233.18,284.626 1197.5,283C 1194.31,285.692 1190.97,288.192 1187.5,290.5C 1176.91,286.854 1166.25,283.521 1155.5,280.5C 1177.58,249.359 1197.42,216.693 1215,182.5C 1218.7,177.315 1222.53,172.315 1226.5,167.5C 1229.09,168.128 1231.42,169.295 1233.5,171C 1237.19,171.581 1240.86,171.415 1244.5,170.5C 1246.03,170.64 1247.03,171.307 1247.5,172.5C 1241.91,184.84 1235.91,197.007 1229.5,209C 1239.83,209.667 1250.17,209.667 1260.5,209C 1270.63,197.2 1281.13,185.7 1292,174.5C 1297.59,178.086 1302.59,182.42 1307,187.5C 1312.09,194.68 1317.42,201.68 1323,208.5C 1335.34,192.665 1347.84,176.998 1360.5,161.5C 1371.91,176.081 1382.75,191.081 1393,206.5C 1395.64,209.071 1398.81,210.404 1402.5,210.5C 1406.56,209.647 1410.56,208.48 1414.5,207C 1415.91,206.632 1416.91,205.799 1417.5,204.5C 1411.27,192.709 1405.6,180.709 1400.5,168.5 Z"/></g>
<g><path style="opacity:1" fill="#66ae21" d="M 1014.5,245.5 C 1020.17,245.5 1025.83,245.5 1031.5,245.5C 1029.48,256.25 1027.15,266.917 1024.5,277.5C 1030.83,277.5 1037.17,277.5 1043.5,277.5C 1049.04,262.716 1054.87,248.049 1061,233.5C 1072.99,243.654 1085.32,253.321 1098,262.5C 1104.95,253.453 1111.78,244.287 1118.5,235C 1124.94,237.551 1131.27,240.718 1137.5,244.5C 1138.58,245.365 1138.75,246.365 1138,247.5C 1107.93,299.243 1078.27,351.243 1049,403.5C 1047.46,405.378 1045.62,406.878 1043.5,408C 1013.8,417.401 984.13,426.901 954.5,436.5C 954.167,436 953.833,435.5 953.5,435C 975.942,372.508 996.275,309.341 1014.5,245.5 Z"/></g>
<g><path style="opacity:1" fill="#65ae21" d="M 1623.5,256.5 C 1628.27,254.978 1633.27,253.978 1638.5,253.5C 1659.94,317.973 1681.27,382.473 1702.5,447C 1669.62,436.41 1636.96,424.91 1604.5,412.5C 1573.25,357.662 1542.25,302.662 1511.5,247.5C 1518.51,242.67 1525.68,238.004 1533,233.5C 1539.69,243.561 1546.86,253.228 1554.5,262.5C 1566.82,253.344 1578.99,244.011 1591,234.5C 1597.7,248.41 1603.53,262.744 1608.5,277.5C 1615.18,277.881 1621.84,278.048 1628.5,278C 1626.26,270.985 1624.6,263.818 1623.5,256.5 Z"/></g>
<g><path style="opacity:1" fill="#65ae20" d="M 1155.5,280.5 C 1166.25,283.521 1176.91,286.854 1187.5,290.5C 1190.97,288.192 1194.31,285.692 1197.5,283C 1233.18,284.626 1268.84,286.792 1304.5,289.5C 1309.15,288.723 1313.32,286.723 1317,283.5C 1376.62,285.494 1436.45,286.161 1496.5,285.5C 1518.36,324.054 1540.36,362.554 1562.5,401C 1530.3,394.628 1497.97,388.628 1465.5,383C 1355.64,366.99 1245.97,368.323 1136.5,387C 1120.73,390.457 1105.07,393.291 1089.5,395.5C 1111.53,357.15 1133.53,318.816 1155.5,280.5 Z"/></g>
<g><path style="opacity:1" fill="#63ad22" d="M 901.5,325.5 C 915.548,333.38 929.215,341.88 942.5,351C 932.875,384.211 923.042,417.377 913,450.5C 911.542,452.96 909.709,455.127 907.5,457C 886.288,467.439 864.955,477.606 843.5,487.5C 842.386,486.277 842.219,484.944 843,483.5C 862.607,430.843 882.107,378.177 901.5,325.5 Z"/></g>
<g><path style="opacity:1" fill="#63ad23" d="M 1751.5,333.5 C 1752.5,333.414 1753.33,333.748 1754,334.5C 1775.27,391.178 1795.77,447.844 1815.5,504.5C 1792.08,492.039 1768.58,479.706 1745,467.5C 1734.07,431.53 1723.23,395.53 1712.5,359.5C 1714,357.171 1716,355.337 1718.5,354C 1729.9,347.643 1740.9,340.809 1751.5,333.5 Z"/></g>
<g><path style="opacity:1" fill="#010101" d="M 1280.5,399.5 C 1306.5,399.5 1332.5,399.5 1358.5,399.5C 1358.5,404.5 1358.5,409.5 1358.5,414.5C 1339.17,414.5 1319.83,414.5 1300.5,414.5C 1300.5,427.5 1300.5,440.5 1300.5,453.5C 1315.5,453.5 1330.5,453.5 1345.5,453.5C 1345.5,458.833 1345.5,464.167 1345.5,469.5C 1330.5,469.5 1315.5,469.5 1300.5,469.5C 1300.5,483.5 1300.5,497.5 1300.5,511.5C 1319.5,511.5 1338.5,511.5 1357.5,511.5C 1357.5,516.5 1357.5,521.5 1357.5,526.5C 1331.83,526.5 1306.17,526.5 1280.5,526.5C 1280.5,484.167 1280.5,441.833 1280.5,399.5 Z"/></g>
<g><path style="opacity:1" fill="#040404" d="M 1449.5,401.5 C 1468.49,405.414 1487.15,410.58 1505.5,417C 1521.6,424.365 1528.43,436.865 1526,454.5C 1520.97,473.019 1508.8,483.686 1489.5,486.5C 1497.83,507.167 1506.17,527.833 1514.5,548.5C 1514.17,548.833 1513.83,549.167 1513.5,549.5C 1505.95,547.029 1498.28,545.029 1490.5,543.5C 1483.83,524.341 1476.67,505.341 1469,486.5C 1463.98,484.452 1458.81,482.785 1453.5,481.5C 1452.35,481.818 1451.52,482.484 1451,483.5C 1447,499.15 1443.17,514.817 1439.5,530.5C 1432.3,529.579 1425.3,527.913 1418.5,525.5C 1428.84,484.138 1439.17,442.805 1449.5,401.5 Z"/></g>
<g><path style="opacity:1" fill="#060606" d="M 1199.5,404.5 C 1200.5,404.5 1201.5,404.5 1202.5,404.5C 1202.22,406.415 1202.55,408.081 1203.5,409.5C 1203.83,413.5 1204.17,417.5 1204.5,421.5C 1191.2,423.162 1177.87,424.496 1164.5,425.5C 1168.98,460.97 1173.32,496.47 1177.5,532C 1177.32,533.658 1176.66,534.991 1175.5,536C 1169.15,536.788 1162.82,537.621 1156.5,538.5C 1152.33,501.811 1148,465.144 1143.5,428.5C 1130.23,430.345 1116.89,431.679 1103.5,432.5C 1102.83,426.833 1102.17,421.167 1101.5,415.5C 1134.16,411.834 1166.83,408.167 1199.5,404.5 Z"/></g>
<g><path style="opacity:1" fill="#6c6c6c" d="M 1199.5,404.5 C 1200.57,403.566 1201.9,403.232 1203.5,403.5C 1203.5,405.5 1203.5,407.5 1203.5,409.5C 1202.55,408.081 1202.22,406.415 1202.5,404.5C 1201.5,404.5 1200.5,404.5 1199.5,404.5 Z"/></g>
<g><path style="opacity:1" fill="#f8f8f8" d="M 1465.5,423.5 C 1476.05,423.805 1486.05,426.305 1495.5,431C 1506.6,438.492 1509.1,448.325 1503,460.5C 1497.58,468.154 1490.08,471.487 1480.5,470.5C 1472.03,469.922 1463.7,468.589 1455.5,466.5C 1458.37,452.026 1461.7,437.693 1465.5,423.5 Z"/></g>
<g><path style="opacity:1" fill="#040404" d="M 1012.5,437.5 C 1024.76,436.421 1036.43,438.421 1047.5,443.5C 1046.19,447.783 1045.19,452.116 1044.5,456.5C 1037.66,456.361 1030.83,456.027 1024,455.5C 1011.19,455.072 1002.19,460.739 997,472.5C 995.252,482.434 999.418,488.267 1009.5,490C 1024.13,490.66 1038.46,492.994 1052.5,497C 1061.44,501.028 1066.94,507.861 1069,517.5C 1072.8,546.384 1060.3,563.551 1031.5,569C 1017.72,571.23 1004.72,569.063 992.5,562.5C 992.449,557.458 993.783,552.624 996.5,548C 1004.15,548.727 1011.82,549.727 1019.5,551C 1031.96,553.605 1041.8,549.771 1049,539.5C 1053.64,522.936 1047.48,513.769 1030.5,512C 1019.05,511.546 1007.72,510.213 996.5,508C 982.876,501.607 976.209,490.773 976.5,475.5C 976.461,462.743 981.795,452.91 992.5,446C 998.934,442.274 1005.6,439.44 1012.5,437.5 Z"/></g>
<g><path style="opacity:1" fill="#050505" d="M 1605.5,441.5 C 1628.08,438.797 1646.08,446.464 1659.5,464.5C 1655.81,468.526 1652.14,472.526 1648.5,476.5C 1638.1,465.8 1625.43,460.3 1610.5,460C 1598.28,466.2 1596.12,475.034 1604,486.5C 1612.9,493.369 1622.07,499.869 1631.5,506C 1645.26,517.629 1648.42,531.795 1641,548.5C 1632.86,563.155 1620.36,570.488 1603.5,570.5C 1582.23,569.703 1565.9,560.37 1554.5,542.5C 1559.51,537.49 1564.85,532.823 1570.5,528.5C 1571.48,528.977 1572.31,529.643 1573,530.5C 1573.9,534.805 1575.74,538.639 1578.5,542C 1584.61,546.388 1591.28,549.721 1598.5,552C 1609.35,553.475 1617.19,549.309 1622,539.5C 1622.15,528.646 1617.65,520.146 1608.5,514C 1597.13,509.575 1587.96,502.409 1581,492.5C 1573.97,475.786 1577.14,461.286 1590.5,449C 1595.32,445.921 1600.32,443.421 1605.5,441.5 Z"/></g>
<g><path style="opacity:1" fill="#040404" d="M 890.5,482.5 C 891.376,482.369 892.043,482.702 892.5,483.5C 909.833,522.167 927.167,560.833 944.5,599.5C 938.319,602.757 931.985,605.757 925.5,608.5C 908.241,569.482 890.574,530.648 872.5,492C 878.751,489.044 884.751,485.878 890.5,482.5 Z"/></g>
<g><path style="opacity:1" fill="#050505" d="M 1761.5,614.5 C 1767.73,615.203 1774.07,615.87 1780.5,616.5C 1782.11,620.673 1783.11,625.007 1783.5,629.5C 1754.35,637.392 1730.18,629.726 1711,606.5C 1699.46,587.84 1697.46,568.174 1705,547.5C 1722.97,507.092 1752.8,493.926 1794.5,508C 1810.23,515.899 1821.23,528.066 1827.5,544.5C 1823.06,548.061 1818.06,549.895 1812.5,550C 1804.11,540.611 1794.78,532.278 1784.5,525C 1770.87,518.188 1757.87,519.188 1745.5,528C 1726.56,543.69 1719.39,563.524 1724,587.5C 1730.73,604.38 1743.23,613.38 1761.5,614.5 Z"/></g>
<g><path style="opacity:1" fill="#050505" d="M 802.5,518.5 C 806.925,522.362 810.092,527.028 812,532.5C 795.815,543.36 779.648,554.193 763.5,565C 769.924,575.759 776.758,586.259 784,596.5C 796.746,588.088 809.746,580.088 823,572.5C 826.682,575.525 829.682,579.191 832,583.5C 832.617,584.449 832.451,585.282 831.5,586C 818.744,593.793 806.244,601.96 794,610.5C 797.415,617.643 801.415,624.643 806,631.5C 808.639,635.639 811.472,639.639 814.5,643.5C 831.167,633.167 847.833,622.833 864.5,612.5C 867.376,617.086 870.376,621.586 873.5,626C 851.085,640.625 828.585,655.125 806,669.5C 782.376,633.752 758.876,597.919 735.5,562C 757.898,547.476 780.232,532.976 802.5,518.5 Z"/></g>
<g><path style="opacity:1" fill="#595959" d="M 1280.5,399.5 C 1280.5,441.833 1280.5,484.167 1280.5,526.5C 1306.17,526.5 1331.83,526.5 1357.5,526.5C 1357.5,521.5 1357.5,516.5 1357.5,511.5C 1358.49,516.64 1358.82,521.974 1358.5,527.5C 1332.17,527.5 1305.83,527.5 1279.5,527.5C 1279.17,484.663 1279.5,441.997 1280.5,399.5 Z"/></g>
<g><path style="opacity:1" fill="#010101" d="M 1304.5,557.5 C 1317.85,557.167 1331.18,557.501 1344.5,558.5C 1447.41,747.327 1550.58,935.994 1654,1124.5C 1656.27,1129.64 1657.94,1134.97 1659,1140.5C 1660.28,1153.8 1660.78,1167.13 1660.5,1180.5C 1436.17,1180.5 1211.83,1180.5 987.5,1180.5C 987.231,1167.47 987.731,1154.47 989,1141.5C 990.483,1134.86 992.817,1128.53 996,1122.5C 1099.37,934.433 1202.2,746.099 1304.5,557.5 Z"/></g>
<g><path style="opacity:1" fill="#040404" d="M 1896.5,563.5 C 1902.75,567.082 1908.75,571.082 1914.5,575.5C 1903.62,590.539 1892.96,605.705 1882.5,621C 1899.63,633.735 1916.96,646.235 1934.5,658.5C 1945.27,643.284 1956.27,628.284 1967.5,613.5C 1973.73,616.775 1979.4,620.775 1984.5,625.5C 1959.49,660.204 1934.49,694.871 1909.5,729.5C 1903.66,725.746 1897.99,721.746 1892.5,717.5C 1903.5,702.167 1914.5,686.833 1925.5,671.5C 1908.17,659.167 1890.83,646.833 1873.5,634.5C 1861.84,649.668 1850.34,665.001 1839,680.5C 1833.33,676.327 1827.83,671.993 1822.5,667.5C 1847.58,633.093 1872.25,598.427 1896.5,563.5 Z"/></g>
<g><path style="opacity:1" fill="#5ba822" d="M 1698.5,636.5 C 1694.37,638.488 1690.04,639.988 1685.5,641C 1657.83,641.333 1630.17,641.667 1602.5,642C 1600.37,644.439 1598.37,646.939 1596.5,649.5C 1563.67,641.626 1531,633.126 1498.5,624C 1494.94,621.104 1492.11,617.604 1490,613.5C 1481.92,598.339 1473.59,583.339 1465,568.5C 1464.41,567.517 1464.74,566.85 1466,566.5C 1546.73,579.552 1624.23,602.885 1698.5,636.5 Z"/></g>
<g><path style="opacity:1" fill="#040404" d="M 653.5,604.5 C 657.737,607.228 661.571,610.561 665,614.5C 689.649,641.983 714.482,669.316 739.5,696.5C 734.997,700.503 730.83,704.837 727,709.5C 706.96,687.129 687.293,664.462 668,641.5C 666.214,642.777 665.048,644.444 664.5,646.5C 672.504,672.522 680.504,698.522 688.5,724.5C 685.471,727.859 682.471,731.192 679.5,734.5C 652.315,726.385 624.982,719.219 597.5,713C 617.667,734.5 637.833,756 658,777.5C 658.667,778.5 658.667,779.5 658,780.5C 654.621,784.216 650.954,787.549 647,790.5C 618.133,759.635 589.3,728.802 560.5,698C 564.715,694.278 569.048,690.778 573.5,687.5C 604.022,695.755 634.522,704.089 665,712.5C 665.5,712.167 666,711.833 666.5,711.5C 656.734,680.703 647.068,649.869 637.5,619C 642.367,613.632 647.701,608.798 653.5,604.5 Z"/></g>
<g><path style="opacity:1" fill="#7f7f7f" d="M 1761.5,614.5 C 1768.25,613.877 1774.59,614.544 1780.5,616.5C 1774.07,615.87 1767.73,615.203 1761.5,614.5 Z"/></g>
<g><path style="opacity:1" fill="#fdfdfd" d="M 1607.5,1134.5 C 1418.83,1135.83 1230.17,1135.83 1041.5,1134.5C 1135.37,961.281 1229.71,788.281 1324.5,615.5C 1419.11,788.394 1513.45,961.394 1607.5,1134.5 Z"/></g>
<g><path style="opacity:1" fill="#56a622" d="M 1698.5,636.5 C 1744.64,661.069 1790.64,685.902 1836.5,711C 1870.08,736.611 1903.42,762.445 1936.5,788.5C 1914.76,793.141 1892.76,795.808 1870.5,796.5C 1831.05,770.602 1791.72,744.435 1752.5,718C 1702.26,691.046 1650.26,668.213 1596.5,649.5C 1598.37,646.939 1600.37,644.439 1602.5,642C 1630.17,641.667 1657.83,641.333 1685.5,641C 1690.04,639.988 1694.37,638.488 1698.5,636.5 Z"/></g>
<g><path style="opacity:1" fill="#59a722" d="M 839.5,741.5 C 836.96,738.272 834.293,735.105 831.5,732C 816.346,732.931 801.18,734.098 786,735.5C 780.384,736.039 775.551,734.372 771.5,730.5C 800.786,710.076 830.786,690.576 861.5,672C 903.875,649.811 947.209,629.811 991.5,612C 1054.71,589.864 1119.37,574.364 1185.5,565.5C 1178.33,577.833 1171.17,590.167 1164,602.5C 1160.44,608.449 1156.27,613.949 1151.5,619C 1115.62,628.637 1079.62,637.97 1043.5,647C 972.244,671.799 904.244,703.299 839.5,741.5 Z"/></g>
<g><path style="opacity:1" fill="#050505" d="M 2068.5,700.5 C 2074.45,705.112 2080.12,710.112 2085.5,715.5C 2068.57,758.461 2051.74,801.461 2035,844.5C 2029.47,839.965 2024.3,835.131 2019.5,830C 2023.96,818.936 2027.8,807.769 2031,796.5C 2019.2,786.369 2007.7,775.869 1996.5,765C 1994.66,763.818 1992.82,762.651 1991,761.5C 1980.67,766.167 1970.33,770.833 1960,775.5C 1954.22,771.392 1948.72,766.892 1943.5,762C 1985.5,741.997 2027.17,721.497 2068.5,700.5 Z"/></g>
<g><path style="opacity:1" fill="#f7f7f7" d="M 2059.5,725.5 C 2060.38,725.369 2061.04,725.702 2061.5,726.5C 2053.95,745.323 2046.12,763.989 2038,782.5C 2027.26,772.55 2016.43,762.717 2005.5,753C 2023.44,743.534 2041.44,734.367 2059.5,725.5 Z"/></g>
<g><path style="opacity:1" fill="#50a322" d="M 771.5,730.5 C 775.551,734.372 780.384,736.039 786,735.5C 801.18,734.098 816.346,732.931 831.5,732C 834.293,735.105 836.96,738.272 839.5,741.5C 819.234,756.312 798.901,771.145 778.5,786C 757.833,802.667 737.167,819.333 716.5,836C 687.996,866.337 658.996,896.17 629.5,925.5C 610.13,925.016 590.797,924.016 571.5,922.5C 580.399,909.428 589.899,896.761 600,884.5C 616.801,866.031 633.968,847.864 651.5,830C 688.833,798 726.167,766 763.5,734C 765.867,732.155 768.533,730.989 771.5,730.5 Z"/></g>
<g><path style="opacity:1" fill="#060606" d="M 598.5,835.5 C 598.833,836.167 599.167,836.833 599.5,837.5C 595.208,840.62 591.041,843.953 587,847.5C 558.632,817.467 530.632,787.134 503,756.5C 505.613,753.887 509.113,750.387 513.5,746C 514.5,745.333 515.5,745.333 516.5,746C 543.957,775.771 571.29,805.604 598.5,835.5 Z"/></g>
<g><path style="opacity:1" fill="#50a322" d="M 1936.5,788.5 C 1952,803.162 1967.66,817.662 1983.5,832C 1993.74,841.733 2003.4,851.9 2012.5,862.5C 1992.14,862.557 1971.8,863.39 1951.5,865C 1950.94,865.383 1950.61,865.883 1950.5,866.5C 1923.51,843.51 1896.85,820.177 1870.5,796.5C 1892.76,795.808 1914.76,793.141 1936.5,788.5 Z"/></g>
<g><path style="opacity:1" fill="#050505" d="M 2166.5,806.5 C 2167.5,806.414 2168.33,806.748 2169,807.5C 2184.5,828.333 2200,849.167 2215.5,870C 2211.31,873.69 2206.98,877.19 2202.5,880.5C 2190.5,864.833 2178.5,849.167 2166.5,833.5C 2155.35,841.168 2144.68,849.335 2134.5,858C 2143.79,871.416 2153.46,884.583 2163.5,897.5C 2159.17,900.833 2154.83,904.167 2150.5,907.5C 2140.46,895.619 2130.96,883.285 2122,870.5C 2121.26,869.426 2120.26,868.759 2119,868.5C 2104.73,878.433 2090.73,888.766 2077,899.5C 2073.24,894.317 2069.24,889.317 2065,884.5C 2064.33,883.5 2064.33,882.5 2065,881.5C 2098.81,856.357 2132.65,831.357 2166.5,806.5 Z"/></g>
<g><path style="opacity:1" fill="#8f8f8f" d="M 599.5,837.5 C 599.167,836.833 598.833,836.167 598.5,835.5C 604.649,832.748 604.982,833.415 599.5,837.5 Z"/></g>
<g><path style="opacity:1" fill="#040404" d="M 450.5,841.5 C 479.857,840.429 503.024,851.763 520,875.5C 529.291,891.724 530.958,908.724 525,926.5C 514.164,946.85 501.831,966.183 488,984.5C 452.029,960.029 416.196,935.362 380.5,910.5C 393.543,891.62 407.543,873.453 422.5,856C 430.942,849.28 440.276,844.447 450.5,841.5 Z"/></g>
<g><path style="opacity:1" fill="#fcfcfc" d="M 453.5,860.5 C 477.252,862.797 495.419,874.13 508,894.5C 512.561,908.285 510.894,921.285 503,933.5C 498.111,941.444 492.611,948.944 486.5,956C 485.5,956.667 484.5,956.667 483.5,956C 458.029,938.695 432.696,921.195 407.5,903.5C 416.197,888.97 427.197,876.47 440.5,866C 444.741,863.651 449.075,861.818 453.5,860.5 Z"/></g>
<g><path style="opacity:1" fill="#050505" d="M 2250.5,916.5 C 2267.06,945.944 2283.39,975.611 2299.5,1005.5C 2295.17,1008 2290.83,1010.5 2286.5,1013C 2285.36,1013.75 2284.36,1013.58 2283.5,1012.5C 2277.49,1001.14 2270.99,990.142 2264,979.5C 2231.68,996.826 2199.35,1014.16 2167,1031.5C 2164,1026.17 2161,1020.83 2158,1015.5C 2157.32,1014.22 2157.48,1013.05 2158.5,1012C 2190.57,995.215 2222.41,978.048 2254,960.5C 2248.75,948.856 2242.91,937.356 2236.5,926C 2241.05,922.606 2245.72,919.439 2250.5,916.5 Z"/></g>
<g><path style="opacity:1" fill="#4aa023" d="M 2012.5,862.5 C 2034.8,888.977 2056.97,915.643 2079,942.5C 2096.08,968.067 2112.92,993.733 2129.5,1019.5C 2128.26,1018.96 2126.92,1018.62 2125.5,1018.5C 2109.12,1020.59 2092.78,1022.92 2076.5,1025.5C 2057.2,999.586 2038.36,973.253 2020,946.5C 1996.62,919.961 1973.46,893.295 1950.5,866.5C 1950.61,865.883 1950.94,865.383 1951.5,865C 1971.8,863.39 1992.14,862.557 2012.5,862.5 Z"/></g>
<g><path style="opacity:1" fill="#040404" d="M 347.5,974.5 C 353.182,976.335 358.182,979.168 362.5,983C 353.535,1000.1 345.035,1017.26 337,1034.5C 347.597,1040.55 358.43,1046.22 369.5,1051.5C 377.159,1038.86 384.325,1025.86 391,1012.5C 391.837,1010.99 393.004,1010.49 394.5,1011C 398.668,1013.25 402.668,1015.75 406.5,1018.5C 399.5,1031.83 392.5,1045.17 385.5,1058.5C 396.475,1065.32 407.809,1071.66 419.5,1077.5C 420.086,1077.29 420.586,1076.96 421,1076.5C 429.658,1059.18 438.825,1042.18 448.5,1025.5C 453.082,1028.04 457.582,1030.71 462,1033.5C 450.764,1056.64 438.93,1079.64 426.5,1102.5C 425.277,1103.61 423.944,1103.78 422.5,1103C 385.167,1083.67 347.833,1064.33 310.5,1045C 323.241,1021.68 335.575,998.183 347.5,974.5 Z"/></g>
<g><path style="opacity:1" fill="#469e23" d="M 571.5,922.5 C 590.797,924.016 610.13,925.016 629.5,925.5C 606.218,957.955 582.718,990.288 559,1022.5C 544.073,1050.02 528.907,1077.36 513.5,1104.5C 496.147,1103.7 478.813,1102.7 461.5,1101.5C 473.795,1075.58 486.628,1049.91 500,1024.5C 521.333,992.5 542.667,960.5 564,928.5C 566.439,926.371 568.939,924.371 571.5,922.5 Z"/></g>
<g><path style="opacity:1" fill="#459d23" d="M 2129.5,1019.5 C 2144.9,1048.25 2159.9,1077.25 2174.5,1106.5C 2157.99,1107.86 2141.65,1110.53 2125.5,1114.5C 2108.92,1085 2092.58,1055.34 2076.5,1025.5C 2092.78,1022.92 2109.12,1020.59 2125.5,1018.5C 2126.92,1018.62 2128.26,1018.96 2129.5,1019.5 Z"/></g>
<g><path style="opacity:1" fill="#040404" d="M 2323.5,1064.5 C 2324.68,1064.28 2325.68,1064.61 2326.5,1065.5C 2336.33,1088.5 2346.17,1111.5 2356,1134.5C 2356.78,1135.94 2356.61,1137.28 2355.5,1138.5C 2350.93,1140.37 2346.43,1142.37 2342,1144.5C 2334.72,1128.28 2327.72,1111.95 2321,1095.5C 2320.31,1093.45 2319.15,1091.78 2317.5,1090.5C 2306.26,1095.04 2295.09,1099.7 2284,1104.5C 2288.88,1118.94 2294.38,1133.28 2300.5,1147.5C 2296.11,1150.36 2291.45,1152.69 2286.5,1154.5C 2279.83,1140.17 2273.17,1125.83 2266.5,1111.5C 2255.62,1116.29 2244.62,1120.79 2233.5,1125C 2231.72,1126.07 2231.22,1127.57 2232,1129.5C 2239.11,1146.06 2245.95,1162.72 2252.5,1179.5C 2252.17,1180.17 2251.83,1180.83 2251.5,1181.5C 2247.05,1183.23 2242.71,1185.23 2238.5,1187.5C 2227.43,1163.19 2216.76,1138.69 2206.5,1114C 2245.56,1097.47 2284.56,1080.97 2323.5,1064.5 Z"/></g>
<g><path style="opacity:1" fill="#040404" d="M 280.5,1122.5 C 321.761,1135.7 362.761,1149.7 403.5,1164.5C 401.498,1170.17 399.498,1175.84 397.5,1181.5C 369.243,1172.14 341.077,1162.47 313,1152.5C 311.831,1153.01 310.998,1153.84 310.5,1155C 329.368,1174.87 347.868,1195.03 366,1215.5C 365.711,1219.89 364.877,1224.22 363.5,1228.5C 334.657,1233.19 305.99,1238.52 277.5,1244.5C 278.09,1245.8 279.09,1246.63 280.5,1247C 308.773,1256.23 336.773,1266.06 364.5,1276.5C 362.494,1282.19 360.494,1287.85 358.5,1293.5C 318.01,1279.39 277.51,1265.39 237,1251.5C 238.459,1244.86 240.626,1238.36 243.5,1232C 273.797,1226.51 304.13,1221.18 334.5,1216C 336.78,1215.77 338.78,1214.93 340.5,1213.5C 318.816,1190.32 297.316,1166.98 276,1143.5C 275.333,1141.83 275.333,1140.17 276,1138.5C 277.815,1133.24 279.315,1127.9 280.5,1122.5 Z"/></g>
<g><path style="opacity:1" fill="#bebebe" d="M 1041.5,1134.5 C 1230.17,1135.83 1418.83,1135.83 1607.5,1134.5C 1608.04,1134.56 1608.38,1134.89 1608.5,1135.5C 1419.17,1136.83 1229.83,1136.83 1040.5,1135.5C 1040.62,1134.89 1040.96,1134.56 1041.5,1134.5 Z"/></g>
<g><path style="opacity:1" fill="#3e9a23" d="M 461.5,1101.5 C 478.813,1102.7 496.147,1103.7 513.5,1104.5C 503.287,1128.6 492.787,1152.6 482,1176.5C 472.859,1202.76 464.026,1229.09 455.5,1255.5C 453.66,1253.83 451.66,1252.33 449.5,1251C 434.819,1250.87 420.152,1251.37 405.5,1252.5C 413.893,1226.15 422.393,1199.82 431,1173.5C 440.943,1149.3 451.11,1125.3 461.5,1101.5 Z"/></g>
<g><path style="opacity:1" fill="#000100" d="M 899.5,1195.5 C 1185.83,1195.5 1472.17,1195.5 1758.5,1195.5C 1758.5,1209.83 1758.5,1224.17 1758.5,1238.5C 1472.17,1238.5 1185.83,1238.5 899.5,1238.5C 899.5,1224.17 899.5,1209.83 899.5,1195.5 Z"/></g>
<g><path style="opacity:1" fill="#3c9923" d="M 2174.5,1106.5 C 2187.13,1135.87 2199.3,1165.53 2211,1195.5C 2219.64,1223.71 2227.8,1252.05 2235.5,1280.5C 2218.5,1280.5 2201.5,1280.5 2184.5,1280.5C 2176.74,1255.37 2169.24,1230.04 2162,1204.5C 2149.54,1174.59 2137.38,1144.59 2125.5,1114.5C 2141.65,1110.53 2157.99,1107.86 2174.5,1106.5 Z"/></g>
<g><path style="opacity:1" fill="#030303" d="M 2375.5,1216.5 C 2377.17,1216.5 2378.83,1216.5 2380.5,1216.5C 2381.47,1221.82 2381.97,1227.15 2382,1232.5C 2356.2,1261.3 2330.04,1289.8 2303.5,1318C 2332.98,1313.45 2362.48,1308.62 2392,1303.5C 2393.44,1303.56 2394.77,1303.89 2396,1304.5C 2397.05,1310.14 2397.89,1315.81 2398.5,1321.5C 2356.11,1328.22 2313.77,1335.22 2271.5,1342.5C 2270.02,1337.25 2269.52,1331.92 2270,1326.5C 2295.65,1298.02 2321.48,1269.68 2347.5,1241.5C 2347.17,1241.17 2346.83,1240.83 2346.5,1240.5C 2316.29,1246.26 2285.95,1251.26 2255.5,1255.5C 2254.62,1249.53 2253.96,1243.53 2253.5,1237.5C 2294.35,1230.86 2335.02,1223.86 2375.5,1216.5 Z"/></g>
<g><path style="opacity:1" fill="#389623" d="M 455.5,1255.5 C 448.663,1285.98 441.663,1316.31 434.5,1346.5C 417.833,1346.5 401.167,1346.5 384.5,1346.5C 391.5,1315.17 398.5,1283.83 405.5,1252.5C 420.152,1251.37 434.819,1250.87 449.5,1251C 451.66,1252.33 453.66,1253.83 455.5,1255.5 Z"/></g>
<g><path style="opacity:1" fill="#000000" d="M 1661.5,1258.5 C 1661.5,1480.83 1661.5,1703.17 1661.5,1925.5C 1438.83,1925.5 1216.17,1925.5 993.5,1925.5C 993.5,1703.5 993.5,1481.5 993.5,1259.5C 1007.83,1259.5 1022.17,1259.5 1036.5,1259.5C 1036.5,1466.5 1036.5,1673.5 1036.5,1880.5C 1230.17,1880.5 1423.83,1880.5 1617.5,1880.5C 1617.5,1673.17 1617.5,1465.83 1617.5,1258.5C 1632.17,1258.5 1646.83,1258.5 1661.5,1258.5 Z"/></g>
<g><path style="opacity:1" fill="#339424" d="M 384.5,1346.5 C 401.167,1346.5 417.833,1346.5 434.5,1346.5C 432.184,1374.21 429.351,1401.88 426,1429.5C 425.392,1431.07 424.558,1432.4 423.5,1433.5C 407.167,1433.5 390.833,1433.5 374.5,1433.5C 377.714,1404.48 381.047,1375.48 384.5,1346.5 Z"/></g>
<g><path style="opacity:1" fill="#359523" d="M 2184.5,1280.5 C 2201.5,1280.5 2218.5,1280.5 2235.5,1280.5C 2240.42,1301.61 2244.92,1322.94 2249,1344.5C 2251.51,1370.56 2254.34,1396.56 2257.5,1422.5C 2256.74,1422.08 2255.9,1421.74 2255,1421.5C 2249.4,1423.7 2243.73,1425.7 2238,1427.5C 2228.18,1426.03 2218.34,1424.69 2208.5,1423.5C 2208.5,1424.5 2208.5,1425.5 2208.5,1426.5C 2205.35,1399.65 2202.18,1372.65 2199,1345.5C 2193.84,1323.88 2189.01,1302.21 2184.5,1280.5 Z"/></g>
<g><path style="opacity:1" fill="#2e9123" d="M 374.5,1433.5 C 390.833,1433.5 407.167,1433.5 423.5,1433.5C 423.5,1460.17 423.5,1486.83 423.5,1513.5C 407.141,1514.95 390.808,1516.61 374.5,1518.5C 373.223,1490.01 373.223,1461.68 374.5,1433.5 Z"/></g>
<g><path style="opacity:1" fill="#298f24" d="M 423.5,1513.5 C 424.428,1535.49 425.262,1557.49 426,1579.5C 429.454,1606.51 432.954,1633.51 436.5,1660.5C 435.234,1659.91 433.901,1659.41 432.5,1659C 417.161,1658.57 401.828,1658.07 386.5,1657.5C 383.137,1633.55 379.971,1609.55 377,1585.5C 375.887,1563.17 375.054,1540.84 374.5,1518.5C 390.808,1516.61 407.141,1514.95 423.5,1513.5 Z"/></g>
<g><path style="opacity:1" fill="#2c9024" d="M 2257.5,1422.5 C 2259.99,1437.71 2260.99,1453.04 2260.5,1468.5C 2259.52,1518.54 2257.52,1568.54 2254.5,1618.5C 2238.18,1617.62 2221.84,1616.96 2205.5,1616.5C 2207.45,1573.68 2209.12,1530.85 2210.5,1488C 2210.37,1467.48 2209.7,1446.98 2208.5,1426.5C 2208.5,1425.5 2208.5,1424.5 2208.5,1423.5C 2218.34,1424.69 2228.18,1426.03 2238,1427.5C 2243.73,1425.7 2249.4,1423.7 2255,1421.5C 2255.9,1421.74 2256.74,1422.08 2257.5,1422.5 Z"/></g>
<g><path style="opacity:1" fill="#248c24" d="M 2205.5,1616.5 C 2221.84,1616.96 2238.18,1617.62 2254.5,1618.5C 2247.24,1654.7 2240.41,1691.03 2234,1727.5C 2233.48,1730.28 2232.31,1732.61 2230.5,1734.5C 2218.01,1733.13 2205.51,1731.8 2193,1730.5C 2189.18,1731.07 2185.35,1731.4 2181.5,1731.5C 2188.01,1694.45 2194.84,1657.45 2202,1620.5C 2202.66,1618.68 2203.83,1617.34 2205.5,1616.5 Z"/></g>
<g><path style="opacity:1" fill="#238c24" d="M 386.5,1657.5 C 401.828,1658.07 417.161,1658.57 432.5,1659C 433.901,1659.41 435.234,1659.91 436.5,1660.5C 442.818,1684.77 448.985,1709.11 455,1733.5C 456.804,1740.05 457.637,1746.71 457.5,1753.5C 441.167,1753.5 424.833,1753.5 408.5,1753.5C 400.75,1721.71 393.417,1689.71 386.5,1657.5 Z"/></g>
<g><path style="opacity:1" fill="#1f8925" d="M 2230.5,1734.5 C 2220.32,1769.22 2209.82,1803.89 2199,1838.5C 2197.39,1842.06 2195.56,1845.39 2193.5,1848.5C 2176.13,1849.15 2159.13,1848.49 2142.5,1846.5C 2155.22,1808.06 2168.22,1769.72 2181.5,1731.5C 2185.35,1731.4 2189.18,1731.07 2193,1730.5C 2205.51,1731.8 2218.01,1733.13 2230.5,1734.5 Z"/></g>
<g><path style="opacity:1" fill="#1c8824" d="M 408.5,1753.5 C 424.833,1753.5 441.167,1753.5 457.5,1753.5C 468.792,1783.53 479.625,1813.87 490,1844.5C 503.453,1871.74 516.62,1899.07 529.5,1926.5C 516.829,1926.33 504.162,1926.5 491.5,1927C 486.468,1928.4 481.468,1929.9 476.5,1931.5C 464.348,1904.53 452.181,1877.53 440,1850.5C 429.393,1818.18 418.893,1785.85 408.5,1753.5 Z"/></g>
<g><path style="opacity:1" fill="#198625" d="M 2142.5,1846.5 C 2159.13,1848.49 2176.13,1849.15 2193.5,1848.5C 2173.68,1890.8 2153.35,1932.8 2132.5,1974.5C 2128.36,1971.59 2124.03,1968.93 2119.5,1966.5C 2116.05,1967.72 2112.72,1969.22 2109.5,1971C 2102.49,1972.95 2095.49,1972.95 2088.5,1971C 2085.76,1969.97 2083.43,1968.47 2081.5,1966.5C 2101.33,1926.18 2121.66,1886.18 2142.5,1846.5 Z"/></g>
<g><path style="opacity:1" fill="#9e9e9e" d="M 1661.5,1258.5 C 1662.5,1481 1662.83,1703.67 1662.5,1926.5C 1439.17,1926.5 1215.83,1926.5 992.5,1926.5C 992.167,1704 992.5,1481.67 993.5,1259.5C 993.5,1481.5 993.5,1703.5 993.5,1925.5C 1216.17,1925.5 1438.83,1925.5 1661.5,1925.5C 1661.5,1703.17 1661.5,1480.83 1661.5,1258.5 Z"/></g>
<g><path style="opacity:1" fill="#020202" d="M 1313.5,1373.5 C 1393.8,1370.72 1454.63,1403.39 1496,1471.5C 1522,1521.18 1526.67,1572.85 1510,1626.5C 1481.41,1705.09 1425.57,1749.59 1342.5,1760C 1264.79,1763.57 1205.29,1732.73 1164,1667.5C 1129.03,1601.66 1128.7,1535.66 1163,1469.5C 1188.51,1426.01 1225.34,1396.51 1273.5,1381C 1286.73,1377.3 1300.06,1374.8 1313.5,1373.5 Z"/></g>
<g><path style="opacity:1" fill="#f0f0f0" d="M 1267.5,1728.5 C 1308.33,1727.5 1349.33,1727.17 1390.5,1727.5C 1349.74,1745.7 1308.74,1746.04 1267.5,1728.5 Z"/></g>
<g><path style="opacity:1" fill="#3d3d3d" d="M 1390.5,1727.5 C 1349.33,1727.17 1308.33,1727.5 1267.5,1728.5C 1266.96,1728.44 1266.62,1728.11 1266.5,1727.5C 1287.33,1727.17 1308.17,1726.83 1329,1726.5C 1350.24,1726.49 1370.74,1726.83 1390.5,1727.5 Z"/></g>
<g><path style="opacity:1" fill="#fdfdfd" d="M 1285.5,1636.5 C 1314.5,1636.33 1343.5,1636.5 1372.5,1637C 1383.35,1648.35 1394.02,1659.85 1404.5,1671.5C 1395.25,1685.66 1386.25,1700 1377.5,1714.5C 1344.51,1715.67 1311.51,1715.83 1278.5,1715C 1269.62,1700.75 1260.62,1686.58 1251.5,1672.5C 1262.49,1660.18 1273.82,1648.18 1285.5,1636.5 Z"/></g>
<g><path style="opacity:1" fill="#f6f6f6" d="M 1500.5,1563.5 C 1501.5,1563.41 1502.33,1563.75 1503,1564.5C 1505.58,1597.18 1498.25,1627.51 1481,1655.5C 1478.33,1658.83 1475.67,1662.17 1473,1665.5C 1471.92,1637.56 1477.26,1610.89 1489,1585.5C 1493.1,1578.3 1496.93,1570.97 1500.5,1563.5 Z"/></g>
<g><path style="opacity:1" fill="#f4f4f4" d="M 1150.5,1561.5 C 1165.89,1581.13 1175.39,1603.46 1179,1628.5C 1180.73,1639.11 1181.4,1649.78 1181,1660.5C 1160.73,1630.71 1150.57,1597.71 1150.5,1561.5 Z"/></g>
<g><path style="opacity:1" fill="#fcfcfc" d="M 1446.5,1535.5 C 1449.1,1537.3 1451.26,1539.64 1453,1542.5C 1461.67,1555.17 1470.33,1567.83 1479,1580.5C 1474.67,1600.31 1469.5,1619.97 1463.5,1639.5C 1446.17,1647.83 1428.83,1656.17 1411.5,1664.5C 1398.78,1652.07 1386.28,1639.4 1374,1626.5C 1373.33,1624.83 1373.33,1623.17 1374,1621.5C 1380.67,1600.83 1387.33,1580.17 1394,1559.5C 1411.63,1551.6 1429.13,1543.6 1446.5,1535.5 Z"/></g>
<g><path style="opacity:1" fill="#fcfcfc" d="M 1205.5,1536.5 C 1224.27,1543.81 1242.77,1551.81 1261,1560.5C 1268.37,1582.27 1275.53,1604.1 1282.5,1626C 1281.35,1627.82 1280.18,1629.66 1279,1631.5C 1268,1642.83 1257,1654.17 1246,1665.5C 1227.89,1656.74 1209.73,1648.07 1191.5,1639.5C 1186.07,1620.37 1180.74,1601.21 1175.5,1582C 1185.64,1566.88 1195.64,1551.71 1205.5,1536.5 Z"/></g>
<g><path style="opacity:1" fill="#fdfdfd" d="M 1384.5,1429.5 C 1388.14,1430.15 1391.47,1431.65 1394.5,1434C 1410.36,1446.03 1426.36,1457.86 1442.5,1469.5C 1443.83,1489.17 1443.83,1508.83 1442.5,1528.5C 1425.06,1536.3 1407.56,1543.97 1390,1551.5C 1371.01,1537.85 1352.01,1524.18 1333,1510.5C 1332.33,1488.83 1332.33,1467.17 1333,1445.5C 1350.28,1440.24 1367.45,1434.9 1384.5,1429.5 Z"/></g>
<g><path style="opacity:1" fill="#fcfcfc" d="M 1265.5,1429.5 C 1284.24,1434.52 1302.91,1439.85 1321.5,1445.5C 1322.67,1467.16 1322.83,1488.83 1322,1510.5C 1303.41,1523.88 1284.91,1537.38 1266.5,1551C 1265.5,1551.17 1264.5,1551.33 1263.5,1551.5C 1245.98,1544.49 1228.65,1536.99 1211.5,1529C 1210.17,1508.9 1210.17,1488.73 1211.5,1468.5C 1229.92,1455.97 1247.92,1442.97 1265.5,1429.5 Z"/></g>
<g><path style="opacity:1" fill="#f5f5f5" d="M 1277.5,1400.5 C 1278.55,1400.35 1279.55,1400.52 1280.5,1401C 1254.56,1431.13 1223.22,1453.63 1186.5,1468.5C 1185.83,1468.17 1185.17,1467.83 1184.5,1467.5C 1194.23,1452.6 1206.23,1439.77 1220.5,1429C 1237.93,1416.29 1256.93,1406.79 1277.5,1400.5 Z"/></g>
<g><path style="opacity:1" fill="#f7f7f7" d="M 1375.5,1401.5 C 1415.2,1411.8 1447.2,1433.8 1471.5,1467.5C 1469.58,1468.64 1467.58,1468.81 1465.5,1468C 1429.64,1453.62 1399.64,1431.46 1375.5,1401.5 Z"/></g>
<g><path style="opacity:1" fill="#188525" d="M 529.5,1926.5 C 550.486,1959.8 571.486,1993.13 592.5,2026.5C 576.8,2026.16 561.134,2026.66 545.5,2028C 542.609,2029.27 539.942,2030.77 537.5,2032.5C 516.93,1999.04 496.596,1965.37 476.5,1931.5C 481.468,1929.9 486.468,1928.4 491.5,1927C 504.162,1926.5 516.829,1926.33 529.5,1926.5 Z"/></g>
<g><path style="opacity:1" fill="#158325" d="M 2081.5,1966.5 C 2083.43,1968.47 2085.76,1969.97 2088.5,1971C 2095.49,1972.95 2102.49,1972.95 2109.5,1971C 2112.72,1969.22 2116.05,1967.72 2119.5,1966.5C 2124.03,1968.93 2128.36,1971.59 2132.5,1974.5C 2110.58,2008.27 2088.42,2041.93 2066,2075.5C 2062.33,2080.34 2058.16,2084.67 2053.5,2088.5C 2046.17,2087.83 2038.67,2087.5 2031,2087.5C 2023,2087.53 2015.17,2088.2 2007.5,2089.5C 2002.81,2087.82 1998.15,2086.15 1993.5,2084.5C 2022.48,2044.86 2051.81,2005.53 2081.5,1966.5 Z"/></g>
<g><path style="opacity:1" fill="#020202" d="M 1010.5,2115.5 C 1010.5,2114.5 1010.5,2113.5 1010.5,2112.5C 1030.5,2112.5 1050.5,2112.5 1070.5,2112.5C 1070.67,2137.17 1070.5,2161.84 1070,2186.5C 1027.81,2212.63 985.305,2213.13 942.5,2188C 921.213,2172.62 908.713,2151.78 905,2125.5C 899.152,2088.69 909.652,2057.52 936.5,2032C 975.476,2005.49 1015.81,2003.49 1057.5,2026C 1061.68,2028.93 1065.68,2032.09 1069.5,2035.5C 1065.52,2042.13 1061.19,2048.46 1056.5,2054.5C 1044.63,2048.23 1032.29,2043.06 1019.5,2039C 979.912,2031.54 952.745,2046.37 938,2083.5C 930.798,2110.04 934.798,2134.71 950,2157.5C 969.864,2179.6 994.364,2187.1 1023.5,2180C 1029.71,2178.23 1035.71,2175.89 1041.5,2173C 1042.49,2160.58 1042.82,2148.08 1042.5,2135.5C 1032.17,2135.5 1021.83,2135.5 1011.5,2135.5C 1010.72,2128.86 1010.39,2122.2 1010.5,2115.5 Z"/></g>
<g><path style="opacity:1" fill="#7f7f7f" d="M 1603.5,2014.5 C 1650.67,2013.17 1698,2013.17 1745.5,2014.5C 1745.38,2015.11 1745.04,2015.44 1744.5,2015.5C 1697.67,2014.5 1650.67,2014.17 1603.5,2014.5 Z"/></g>
<g><path style="opacity:1" fill="#020202" d="M 1389.5,2202.5 C 1379.32,2202.83 1369.32,2202.49 1359.5,2201.5C 1383.75,2139.17 1408.41,2077 1433.5,2015C 1444.17,2014.33 1454.83,2014.33 1465.5,2015C 1491.06,2077.51 1515.73,2140.35 1539.5,2203.5C 1532.49,2203.67 1525.49,2203.5 1518.5,2203C 1511.07,2200.56 1505.9,2195.73 1503,2188.5C 1498.73,2177.21 1494.57,2165.87 1490.5,2154.5C 1463.17,2153.5 1435.84,2153.17 1408.5,2153.5C 1402.45,2169.93 1396.12,2186.27 1389.5,2202.5 Z"/></g>
<g><path style="opacity:1" fill="#010101" d="M 1603.5,2014.5 C 1650.67,2014.17 1697.67,2014.5 1744.5,2015.5C 1741.83,2024.01 1738.66,2032.34 1735,2040.5C 1702.89,2086.94 1670.39,2133.11 1637.5,2179C 1671.5,2179.5 1705.5,2179.67 1739.5,2179.5C 1739.5,2187.17 1739.5,2194.83 1739.5,2202.5C 1691,2202.83 1642.66,2202.5 1594.5,2201.5C 1596.38,2192.69 1599.55,2184.36 1604,2176.5C 1636.39,2131.62 1668.55,2086.62 1700.5,2041.5C 1701.04,2041.44 1701.38,2041.11 1701.5,2040.5C 1668.84,2039.5 1636.17,2039.17 1603.5,2039.5C 1603.5,2031.17 1603.5,2022.83 1603.5,2014.5 Z"/></g>
<g><path style="opacity:1" fill="#020202" d="M 1191.5,2202.5 C 1181.5,2202.5 1171.5,2202.5 1161.5,2202.5C 1161.5,2140.5 1161.5,2078.5 1161.5,2016.5C 1185.66,2015.34 1210,2015.17 1234.5,2016C 1273.16,2018.33 1290.66,2038.83 1287,2077.5C 1281.35,2099.32 1267.85,2113.98 1246.5,2121.5C 1265.5,2148.17 1284.5,2174.83 1303.5,2201.5C 1295.61,2203.44 1287.61,2203.94 1279.5,2203C 1271.56,2201.61 1265.06,2197.78 1260,2191.5C 1249.75,2173.99 1238.75,2156.99 1227,2140.5C 1218.21,2128.18 1206.38,2123.85 1191.5,2127.5C 1191.5,2152.5 1191.5,2177.5 1191.5,2202.5 Z"/></g>
<g><path style="opacity:1" fill="#108225" d="M 592.5,2026.5 C 619.469,2058.31 646.302,2090.31 673,2122.5C 698.695,2145.37 724.195,2168.37 749.5,2191.5C 738.317,2195.17 726.817,2198.17 715,2200.5C 710.11,2198.64 705.276,2196.64 700.5,2194.5C 696.773,2198.22 693.44,2202.22 690.5,2206.5C 664.868,2181.37 639.368,2156.03 614,2130.5C 588.25,2097.98 562.75,2065.32 537.5,2032.5C 539.942,2030.77 542.609,2029.27 545.5,2028C 561.134,2026.66 576.8,2026.16 592.5,2026.5 Z"/></g>
<g><path style="opacity:1" fill="#fbfbfb" d="M 1191.5,2036.5 C 1206.9,2036.84 1222.23,2038 1237.5,2040C 1251.29,2045.14 1257.95,2055.14 1257.5,2070C 1258.28,2083.79 1252.61,2093.79 1240.5,2100C 1224.42,2104.07 1208.08,2106.57 1191.5,2107.5C 1191.5,2083.83 1191.5,2060.17 1191.5,2036.5 Z"/></g>
<g><path style="opacity:1" fill="#3e3e3e" d="M 1603.5,2039.5 C 1636.17,2039.17 1668.84,2039.5 1701.5,2040.5C 1701.38,2041.11 1701.04,2041.44 1700.5,2041.5C 1668.17,2040.83 1635.83,2040.17 1603.5,2039.5 Z"/></g>
<g><path style="opacity:1" fill="#f7f7f7" d="M 1448.5,2046.5 C 1450.28,2047.57 1451.45,2049.24 1452,2051.5C 1462.34,2078.34 1472.17,2105.34 1481.5,2132.5C 1460.17,2132.5 1438.83,2132.5 1417.5,2132.5C 1427.82,2103.85 1438.16,2075.18 1448.5,2046.5 Z"/></g>
<g><path style="opacity:1" fill="#108125" d="M 1993.5,2084.5 C 1998.15,2086.15 2002.81,2087.82 2007.5,2089.5C 2015.17,2088.2 2023,2087.53 2031,2087.5C 2038.67,2087.5 2046.17,2087.83 2053.5,2088.5C 2043.22,2104.01 2031.72,2118.68 2019,2132.5C 1997.6,2154.4 1975.77,2175.73 1953.5,2196.5C 1930.31,2195.15 1906.98,2193.81 1883.5,2192.5C 1919.86,2156.14 1956.53,2120.14 1993.5,2084.5 Z"/></g>
<g><path style="opacity:1" fill="#3f3f3f" d="M 1070.5,2112.5 C 1050.5,2112.5 1030.5,2112.5 1010.5,2112.5C 1010.5,2113.5 1010.5,2114.5 1010.5,2115.5C 1009.57,2114.43 1009.23,2113.1 1009.5,2111.5C 1030.01,2111.17 1050.34,2111.5 1070.5,2112.5 Z"/></g>
<g><path style="opacity:1" fill="#0c7f25" d="M 749.5,2191.5 C 787.343,2218.5 825.343,2245.34 863.5,2272C 885.853,2284.18 908.52,2295.84 931.5,2307C 971.997,2323.66 1012.66,2339.83 1053.5,2355.5C 1045.32,2356.22 1036.98,2356.89 1028.5,2357.5C 1026.22,2357.22 1025.05,2355.89 1025,2353.5C 1021.13,2355.43 1017.13,2357.1 1013,2358.5C 1011.94,2358.37 1011.11,2357.87 1010.5,2357C 999.505,2356.5 988.505,2356.33 977.5,2356.5C 977.649,2357.55 977.483,2358.55 977,2359.5C 974.913,2358.21 972.746,2357.04 970.5,2356C 959.833,2355.33 949.167,2355.33 938.5,2356C 936.63,2358.04 934.63,2359.87 932.5,2361.5C 891.016,2344.93 851.683,2324.43 814.5,2300C 801.994,2291.91 789.661,2283.58 777.5,2275C 748.431,2252.15 719.431,2229.31 690.5,2206.5C 693.44,2202.22 696.773,2198.22 700.5,2194.5C 705.276,2196.64 710.11,2198.64 715,2200.5C 726.817,2198.17 738.317,2195.17 749.5,2191.5 Z"/></g>
<g><path style="opacity:1" fill="#0c7f25" d="M 1883.5,2192.5 C 1906.98,2193.81 1930.31,2195.15 1953.5,2196.5C 1930.8,2217.03 1907.46,2236.86 1883.5,2256C 1851.18,2278.16 1818.51,2299.83 1785.5,2321C 1782.37,2322.78 1779.03,2323.95 1775.5,2324.5C 1772.68,2322.18 1770.01,2319.68 1767.5,2317C 1740.33,2316.83 1713.33,2316.33 1686.5,2315.5C 1712.28,2302.78 1737.62,2289.28 1762.5,2275C 1803.21,2247.98 1843.54,2220.48 1883.5,2192.5 Z"/></g>
<g><path style="opacity:1" fill="#a1a1a1" d="M 1161.5,2016.5 C 1161.5,2078.5 1161.5,2140.5 1161.5,2202.5C 1171.5,2202.5 1181.5,2202.5 1191.5,2202.5C 1181.35,2203.49 1171.01,2203.83 1160.5,2203.5C 1160.17,2141 1160.5,2078.66 1161.5,2016.5 Z"/></g>
<g><path style="opacity:1" fill="#818181" d="M 1359.5,2201.5 C 1369.32,2202.49 1379.32,2202.83 1389.5,2202.5C 1379.33,2203.82 1368.99,2203.82 1358.5,2202.5C 1358.62,2201.89 1358.96,2201.56 1359.5,2201.5 Z"/></g>
<g><path style="opacity:1" fill="#b6b6b6" d="M 1739.5,2179.5 C 1740.49,2187.32 1740.83,2195.32 1740.5,2203.5C 1691.5,2203.83 1642.5,2203.5 1593.5,2202.5C 1593.62,2201.89 1593.96,2201.56 1594.5,2201.5C 1642.66,2202.5 1691,2202.83 1739.5,2202.5C 1739.5,2194.83 1739.5,2187.17 1739.5,2179.5 Z"/></g>
<g><path style="opacity:1" fill="#077c26" d="M 1686.5,2315.5 C 1713.33,2316.33 1740.33,2316.83 1767.5,2317C 1770.01,2319.68 1772.68,2322.18 1775.5,2324.5C 1718.62,2358.26 1658.29,2384.43 1594.5,2403C 1532.22,2420.79 1468.88,2433.46 1404.5,2441C 1350.85,2443.93 1297.18,2444.27 1243.5,2442C 1181.32,2438.63 1120.65,2427.3 1061.5,2408C 1021.03,2394.73 980.696,2381.07 940.5,2367C 937.379,2365.69 934.713,2363.86 932.5,2361.5C 934.63,2359.87 936.63,2358.04 938.5,2356C 949.167,2355.33 959.833,2355.33 970.5,2356C 972.746,2357.04 974.913,2358.21 977,2359.5C 977.483,2358.55 977.649,2357.55 977.5,2356.5C 988.505,2356.33 999.505,2356.5 1010.5,2357C 1011.11,2357.87 1011.94,2358.37 1013,2358.5C 1017.13,2357.1 1021.13,2355.43 1025,2353.5C 1025.05,2355.89 1026.22,2357.22 1028.5,2357.5C 1036.98,2356.89 1045.32,2356.22 1053.5,2355.5C 1107.61,2370.62 1162.61,2381.45 1218.5,2388C 1347.21,2403.09 1472.88,2390.09 1595.5,2349C 1625.98,2338.12 1656.31,2326.95 1686.5,2315.5 Z"/></g>
</svg>
